<?xml version="1.0" encoding="utf-8"?>
<!-- Generator: Adobe Illustrator 23.0.1, SVG Export Plug-In . SVG Version: 6.00 Build 0)  -->
<svg version="1.1" id="Слой_1" xmlns="http://www.w3.org/2000/svg" xmlns:xlink="http://www.w3.org/1999/xlink" x="0px" y="0px"
	 viewBox="0 0 83.53 101.26" style="enable-background:new 0 0 83.53 101.26;" xml:space="preserve">
<style type="text/css">
	.st0{fill:#FFFFFF;}
</style>
<g>
	<g transform="matrix(.36867 0 0 .36867 7.7552 456.72)">
		<g>
			<path class="st0" d="M118.72-1113.29l-64.39,57.02l6.78,7.65l57.87-51.24l57.86,51.24l6.77-7.65l-64.37-57.02l-0.25,0.29
				L118.72-1113.29L118.72-1113.29z"/>
		</g>
		<g>
			<path class="st0" d="M161.69-995.05H76.27c-4.05,0-7.34-3.29-7.34-7.34v-57.44c0-1.33,0.57-2.61,1.57-3.49l45.4-40.2
				c1.77-1.56,4.42-1.56,6.18,0l45.37,40.18c1,0.89,1.57,2.16,1.57,3.49v57.46C169.02-998.34,165.73-995.05,161.69-995.05z
				 M78.25-1004.38h81.45v-53.37l-40.71-36.05l-40.74,36.07V-1004.38z"/>
		</g>
		<g>
			<path class="st0" d="M73.58-1105.11h16.32l-0.14,16.98l-16.18,14.62L73.58-1105.11L73.58-1105.11z"/>
		</g>
		<g>
			<rect x="111.57" y="-1044.63" class="st0" width="12.44" height="12.44"/>
		</g>
	</g>
	<g>
		<path class="st0" d="M76.15,101.26H7.38c-4.07,0-7.38-3.31-7.38-7.38V7.38C0,3.31,3.31,0,7.38,0h68.76c4.07,0,7.38,3.31,7.38,7.38
			v86.5C83.53,97.95,80.22,101.26,76.15,101.26z M7.38,3.44c-2.17,0-3.94,1.77-3.94,3.94v86.5c0,2.17,1.77,3.94,3.94,3.94h68.76
			c2.17,0,3.94-1.77,3.94-3.94V7.38c0-2.17-1.77-3.94-3.94-3.94H7.38z"/>
	</g>
	<g>
		<path class="st0" d="M69.25,20.28H14.28c-0.95,0-1.72-0.77-1.72-1.72c0-0.95,0.77-1.72,1.72-1.72h54.97
			c0.95,0,1.72,0.77,1.72,1.72C70.97,19.51,70.2,20.28,69.25,20.28z"/>
	</g>
	<g>
		<path class="st0" d="M41.76,31.77H14.28c-0.95,0-1.72-0.77-1.72-1.72s0.77-1.72,1.72-1.72h27.48c0.95,0,1.72,0.77,1.72,1.72
			S42.71,31.77,41.76,31.77z"/>
	</g>
</g>
</svg>
