<?xml version="1.0" encoding="utf-8"?>
<!-- Generator: Adobe Illustrator 23.0.1, SVG Export Plug-In . SVG Version: 6.00 Build 0)  -->
<svg version="1.1" id="Слой_1" xmlns="http://www.w3.org/2000/svg" xmlns:xlink="http://www.w3.org/1999/xlink" x="0px" y="0px"
	 viewBox="0 0 93.33 104" style="enable-background:new 0 0 93.33 104;" xml:space="preserve">
<style type="text/css">
	.st0{fill:#FFFFFF;}
	.st1{fill:#63A643;}
</style>
<g>
	<g>
		<g>
			<path class="st0" d="M61.68,74.08H31.65c-4.07,0-7.38-3.31-7.38-7.38V27.51c0-4.07,3.31-7.38,7.38-7.38h30.03
				c4.07,0,7.38,3.31,7.38,7.38V66.7C69.07,70.77,65.75,74.08,61.68,74.08z M31.65,23.57c-2.17,0-3.94,1.77-3.94,3.94V66.7
				c0,2.17,1.77,3.94,3.94,3.94h30.03c2.17,0,3.94-1.77,3.94-3.94V27.51c0-2.17-1.77-3.94-3.94-3.94H31.65z"/>
		</g>
		<g>
			<path class="st0" d="M60.86,32.27H32.47c-0.95,0-1.72-0.77-1.72-1.72c0-0.95,0.77-1.72,1.72-1.72h28.39
				c0.95,0,1.72,0.77,1.72,1.72C62.58,31.5,61.81,32.27,60.86,32.27z"/>
		</g>
		<g>
			<path class="st0" d="M60.86,38.91H32.47c-0.95,0-1.72-0.77-1.72-1.72c0-0.95,0.77-1.72,1.72-1.72h28.39
				c0.95,0,1.72,0.77,1.72,1.72C62.58,38.14,61.81,38.91,60.86,38.91z"/>
		</g>
		<g>
			<path class="st0" d="M60.86,45.55H32.47c-0.95,0-1.72-0.77-1.72-1.72s0.77-1.72,1.72-1.72h28.39c0.95,0,1.72,0.77,1.72,1.72
				S61.81,45.55,60.86,45.55z"/>
		</g>
		<g>
			<path class="st0" d="M46.67,52.18H32.47c-0.95,0-1.72-0.77-1.72-1.72c0-0.95,0.77-1.72,1.72-1.72h14.19
				c0.95,0,1.72,0.77,1.72,1.72C48.39,51.41,47.62,52.18,46.67,52.18z"/>
		</g>
		<g>
			<g>
				<path class="st1" d="M54.71,68.76c-4.1,0-7.44-3.34-7.44-7.44c0-4.1,3.34-7.44,7.44-7.44c1.2,0,2.38,0.29,3.44,0.84
					c0.63,0.33,0.88,1.11,0.55,1.74c-0.33,0.63-1.11,0.87-1.74,0.55c-0.69-0.36-1.45-0.55-2.24-0.55c-2.68,0-4.86,2.18-4.86,4.86
					c0,2.68,2.18,4.86,4.86,4.86c2.68,0,4.86-2.18,4.86-4.86c0-0.71,0.58-1.29,1.29-1.29s1.29,0.58,1.29,1.29
					C62.15,65.43,58.81,68.76,54.71,68.76z"/>
			</g>
			<g>
				<path class="st1" d="M54.59,64.85c-0.35,0-0.69-0.14-0.93-0.4l-2.58-2.69c-0.49-0.51-0.47-1.33,0.04-1.82
					c0.51-0.49,1.33-0.47,1.82,0.04l1.61,1.68l4.57-5.16c0.47-0.53,1.29-0.58,1.82-0.11c0.53,0.47,0.58,1.29,0.11,1.82l-5.5,6.2
					c-0.24,0.27-0.58,0.43-0.94,0.43C54.61,64.85,54.6,64.85,54.59,64.85z"/>
			</g>
		</g>
	</g>
	<g>
		<path class="st0" d="M46.61,104c-0.13,0-0.26-0.01-0.38-0.04l-0.36-0.08c-0.35-0.08-0.73-0.21-1.12-0.39
			c-0.29-0.13-0.77-0.36-1.44-0.67c-1.06-0.5-1.27-0.63-1.43-0.75c-0.09-0.06-0.31-0.2-0.64-0.4c-0.39-0.24-0.69-0.41-0.9-0.53
			c-0.21-0.12-0.62-0.35-1.22-0.68c-0.64-0.36-1.08-0.6-1.32-0.75c-0.26-0.16-0.54-0.33-0.83-0.54c-0.26-0.18-0.56-0.4-0.9-0.65
			c-0.33-0.24-0.77-0.58-1.31-1l-1.39-1.08c-0.4-0.31-0.99-0.78-1.76-1.41c-0.72-0.59-1.19-0.96-1.39-1.11
			c-0.22-0.16-0.7-0.55-1.45-1.15c-0.76-0.62-1.19-0.97-1.27-1.05l-1.07-0.98c-0.66-0.6-1.12-1.03-1.38-1.29
			c-0.26-0.25-0.81-0.81-1.67-1.67c-1.18-1.18-1.48-1.5-1.61-1.65L21,85.27c-0.35-0.39-0.62-0.71-0.82-0.95
			c-0.2-0.24-0.41-0.5-0.61-0.77c-0.19-0.25-0.38-0.5-0.59-0.76c-0.21-0.26-0.4-0.5-0.56-0.7c-0.19-0.24-0.36-0.45-0.49-0.64
			c-0.11-0.15-0.26-0.35-0.46-0.6c-0.23-0.29-0.43-0.55-0.6-0.79c-0.15-0.2-0.34-0.47-0.59-0.8c-0.27-0.37-0.48-0.65-0.62-0.86
			c-0.12-0.18-0.33-0.48-0.62-0.88c-0.33-0.48-0.55-0.8-0.66-0.98c-0.09-0.15-0.32-0.52-0.71-1.12c-0.4-0.62-0.67-1.03-0.8-1.21
			c-0.14-0.21-0.48-0.76-1.03-1.67c-0.53-0.87-0.92-1.53-1.19-1.97c-0.28-0.47-0.53-0.92-0.74-1.33c-0.21-0.4-0.5-1-0.88-1.81
			c-0.36-0.76-0.53-1.14-0.62-1.38c-0.06-0.16-0.23-0.53-0.49-1.12c-0.37-0.84-0.65-1.5-0.86-1.99c-0.21-0.49-0.5-1.24-0.87-2.25
			c-0.36-0.98-0.74-2.05-1.11-3.18c-0.37-1.12-0.78-2.51-1.23-4.11c-0.44-1.59-0.77-2.81-0.96-3.61c-0.18-0.78-0.44-1.91-0.76-3.4
			c-0.34-1.56-0.53-2.53-0.6-3.05c-0.06-0.49-0.2-1.9-0.4-4.31c-0.2-2.37-0.33-4.18-0.4-5.39c-0.06-1.19-0.13-2.46-0.21-3.8
			c-0.08-1.35-0.19-3.56-0.33-6.63C0.07,20.11,0,17.96,0,16.65v-1.91c0-0.66,0.37-1.25,0.96-1.54l0.2-0.1
			c0.27-0.13,0.62-0.24,1.57-0.39c0.59-0.09,1.4-0.21,2.44-0.36c1.02-0.15,2.58-0.39,4.66-0.72c2.09-0.33,3.59-0.57,4.5-0.72
			c0.88-0.14,2.07-0.37,3.52-0.68c1.45-0.3,2.72-0.6,3.8-0.87c1.04-0.27,1.96-0.52,2.73-0.75c0.79-0.24,1.41-0.43,1.86-0.56
			c0.43-0.13,0.84-0.25,1.22-0.37c0.4-0.13,1.19-0.4,2.37-0.82c1.18-0.41,2.3-0.83,3.32-1.25c1.29-0.53,1.69-0.68,1.91-0.74
			c0.2-0.07,0.63-0.25,1.29-0.54c0.94-0.4,1.8-0.77,2.56-1.1c0.76-0.33,1.51-0.66,2.25-0.99c0.73-0.33,1.64-0.75,2.73-1.28l1.66-0.8
			C45.79,0.06,46.05,0,46.3,0h0.79c0.25,0,0.51,0.06,0.74,0.17l1.69,0.8c1.12,0.53,1.85,0.88,2.21,1.04c0.36,0.17,1.59,0.7,3.67,1.6
			c2.23,0.96,2.87,1.23,3.06,1.31c0.23,0.07,0.66,0.23,1.84,0.71c1.02,0.41,1.81,0.72,2.36,0.92c0.55,0.2,1.35,0.47,2.4,0.81
			l2.02,0.66c0.27,0.09,0.61,0.2,1.02,0.32c0.41,0.13,0.94,0.28,1.59,0.46c0.66,0.18,1.49,0.4,2.5,0.65c1.01,0.25,2,0.48,2.92,0.67
			c0.96,0.2,1.58,0.33,1.85,0.38c0.28,0.05,1.16,0.21,2.65,0.46c1.49,0.25,2.42,0.41,2.8,0.46c0.38,0.06,1.32,0.19,2.82,0.42
			c1.35,0.2,2.09,0.31,2.21,0.32v0c0.22,0.03,0.72,0.12,2.28,0.4c2.63,0.48,2.63,0.48,3.02,0.83c0.37,0.33,0.58,0.82,0.57,1.32
			l-0.09,4.12c-0.06,2.75-0.21,6.35-0.45,10.7c-0.24,4.34-0.44,7.43-0.58,9.17c-0.14,1.76-0.31,3.3-0.5,4.56
			c-0.19,1.27-0.41,2.49-0.66,3.63c-0.25,1.12-0.51,2.25-0.8,3.39c-0.28,1.13-0.54,2.12-0.76,2.97c-0.23,0.88-0.5,1.82-0.81,2.81
			c-0.3,0.97-0.48,1.55-0.54,1.75c-0.07,0.24-0.18,0.54-0.32,0.9c-0.12,0.3-0.25,0.67-0.4,1.11c-0.17,0.48-0.43,1.16-0.78,2.05
			c-0.35,0.89-0.64,1.59-0.87,2.12c-0.22,0.52-0.5,1.15-0.83,1.88c-0.33,0.75-0.76,1.64-1.27,2.66c-0.69,1.39-0.88,1.74-0.98,1.89
			l-1.1,1.81c-0.66,1.08-1.06,1.72-1.19,1.92c-0.13,0.18-0.43,0.66-0.9,1.42c-0.52,0.83-0.86,1.35-1.02,1.57
			c-0.15,0.21-0.37,0.53-0.68,0.97c-0.33,0.48-0.6,0.86-0.81,1.12c-0.18,0.24-0.4,0.53-0.64,0.86c-0.27,0.36-0.53,0.7-0.77,1
			c-0.2,0.24-0.35,0.44-0.46,0.6c-0.15,0.23-0.38,0.52-0.67,0.88c-0.24,0.29-0.47,0.57-0.68,0.86c-0.25,0.32-0.52,0.66-0.81,1
			c-0.27,0.32-0.5,0.59-0.68,0.82c-0.23,0.27-0.66,0.74-1.31,1.41c-0.63,0.65-1.38,1.4-2.24,2.24c-0.86,0.85-1.62,1.57-2.28,2.17
			c-0.92,0.84-1.24,1.1-1.42,1.23c-0.2,0.15-0.67,0.53-1.41,1.14c-0.78,0.64-1.26,1.03-1.43,1.17l-1.27,1.02
			c-0.7,0.57-1.17,0.93-1.39,1.09c-0.2,0.15-0.43,0.32-0.69,0.52c-0.28,0.22-0.66,0.51-1.15,0.88c-0.51,0.39-0.9,0.68-1.17,0.86
			c-0.29,0.2-0.56,0.38-0.82,0.53c-0.24,0.14-0.68,0.39-1.32,0.75c-0.57,0.32-0.95,0.53-1.13,0.64c-0.22,0.14-0.47,0.28-0.75,0.43
			c-0.21,0.11-0.42,0.24-0.65,0.38c-0.27,0.17-0.47,0.3-0.6,0.37c-0.19,0.11-0.47,0.25-0.97,0.48c-0.42,0.19-0.91,0.41-1.5,0.66
			c-0.62,0.27-1.06,0.44-1.31,0.52l-0.33,0.11C46.97,103.97,46.79,104,46.61,104z M43.85,99.25c0.15,0.08,0.45,0.23,0.92,0.45
			c0.66,0.31,1.13,0.53,1.4,0.66c0.15,0.07,0.26,0.11,0.35,0.14c0.21-0.08,0.51-0.2,0.92-0.38c0.55-0.23,1.02-0.44,1.41-0.62
			c0.3-0.14,0.5-0.23,0.61-0.29c0.11-0.07,0.29-0.18,0.55-0.34c0.3-0.19,0.59-0.36,0.87-0.51c0.2-0.11,0.38-0.21,0.54-0.31
			c0.2-0.13,0.63-0.37,1.29-0.74c0.59-0.33,1-0.56,1.22-0.69c0.2-0.12,0.41-0.25,0.62-0.4c0.24-0.17,0.59-0.42,1.04-0.77
			c0.48-0.36,0.85-0.65,1.12-0.86c0.28-0.22,0.54-0.41,0.76-0.58c0.21-0.15,0.63-0.49,1.27-1.01l1.27-1.02
			c0.17-0.14,0.64-0.52,1.41-1.15c0.81-0.66,1.33-1.08,1.55-1.24c0.08-0.06,0.33-0.26,1.15-1.01c0.63-0.58,1.36-1.27,2.19-2.09
			c0.84-0.82,1.56-1.54,2.18-2.18c0.77-0.79,1.04-1.1,1.14-1.22c0.19-0.23,0.43-0.51,0.7-0.84c0.25-0.3,0.49-0.59,0.7-0.87
			c0.25-0.32,0.5-0.65,0.77-0.97c0.21-0.25,0.37-0.45,0.47-0.61c0.15-0.23,0.36-0.51,0.63-0.84c0.22-0.27,0.44-0.56,0.68-0.88
			c0.26-0.35,0.49-0.65,0.68-0.91c0.18-0.23,0.41-0.56,0.71-0.98c0.32-0.46,0.55-0.8,0.71-1.01c0.14-0.2,0.45-0.67,0.91-1.41
			c0.51-0.81,0.83-1.31,0.97-1.51c0.13-0.19,0.5-0.78,1.11-1.79l1.1-1.81c0.02-0.04,0.17-0.29,0.84-1.64
			c0.49-0.98,0.9-1.83,1.21-2.54c0.32-0.71,0.59-1.32,0.8-1.83c0.22-0.51,0.49-1.18,0.83-2.03c0.33-0.84,0.57-1.48,0.73-1.92
			c0.17-0.48,0.32-0.89,0.44-1.21c0.1-0.26,0.18-0.48,0.23-0.65c0.06-0.2,0.24-0.8,0.55-1.79c0.29-0.94,0.55-1.84,0.77-2.66
			c0.22-0.84,0.47-1.82,0.75-2.94c0.28-1.11,0.54-2.2,0.77-3.29c0.23-1.06,0.44-2.2,0.61-3.39c0.17-1.19,0.33-2.65,0.47-4.34
			c0.14-1.71,0.33-4.76,0.57-9.08c0.24-4.31,0.39-7.87,0.45-10.58l0.06-2.67c-0.22-0.04-0.46-0.08-0.73-0.13
			c-1.28-0.23-1.99-0.36-2.12-0.38v0c-0.25-0.03-0.8-0.11-2.27-0.33c-1.49-0.22-2.42-0.36-2.81-0.41c-0.39-0.06-1.35-0.22-2.88-0.48
			c-1.54-0.26-2.45-0.42-2.73-0.48c-0.29-0.06-0.92-0.19-1.9-0.39c-0.97-0.2-2-0.44-3.06-0.71c-1.04-0.26-1.91-0.49-2.58-0.68
			c-0.68-0.19-1.24-0.35-1.67-0.48c-0.44-0.13-0.8-0.25-1.09-0.34L64,10.62c-1.09-0.36-1.92-0.64-2.49-0.84
			c-0.58-0.21-1.41-0.53-2.48-0.96c-1.01-0.41-1.35-0.54-1.46-0.58c-0.28-0.08-0.89-0.33-3.52-1.47c-2.13-0.92-3.37-1.46-3.74-1.63
			c-0.36-0.17-1.12-0.52-2.26-1.06L46.7,3.44l-1.31,0.63c-1.13,0.54-2.07,0.98-2.83,1.32c-0.75,0.33-1.51,0.67-2.28,1
			c-0.77,0.33-1.63,0.7-2.58,1.11c-1.2,0.52-1.57,0.66-1.78,0.71c-0.13,0.05-0.48,0.18-1.46,0.59c-1.08,0.44-2.25,0.88-3.48,1.32
			c-1.23,0.43-2.05,0.71-2.46,0.84c-0.42,0.13-0.85,0.27-1.31,0.4c-0.44,0.13-1.05,0.31-1.82,0.55c-0.82,0.25-1.79,0.52-2.89,0.8
			c-1.12,0.28-2.45,0.59-3.94,0.9c-1.5,0.32-2.74,0.55-3.67,0.71c-0.91,0.15-2.41,0.39-4.51,0.72c-2.11,0.33-3.68,0.57-4.71,0.72
			C4.73,15.88,4,15.99,3.44,16.08v0.57c0,1.24,0.07,3.4,0.21,6.42c0.14,3.05,0.25,5.24,0.33,6.58c0.08,1.35,0.15,2.63,0.21,3.83
			c0.06,1.17,0.19,2.95,0.39,5.28c0.25,2.89,0.34,3.85,0.38,4.15c0.04,0.28,0.16,0.99,0.55,2.76c0.32,1.46,0.57,2.58,0.75,3.35
			c0.18,0.76,0.49,1.92,0.92,3.47c0.43,1.56,0.83,2.89,1.19,3.96c0.36,1.09,0.72,2.12,1.07,3.06c0.35,0.95,0.62,1.65,0.82,2.12
			c0.2,0.47,0.48,1.12,0.84,1.94c0.31,0.71,0.48,1.1,0.58,1.35c0.05,0.13,0.22,0.48,0.5,1.07c0.35,0.75,0.62,1.3,0.81,1.68
			c0.19,0.36,0.4,0.75,0.65,1.16c0.26,0.44,0.65,1.09,1.17,1.95c0.5,0.83,0.81,1.33,0.94,1.52c0.13,0.19,0.41,0.62,0.83,1.27
			c0.44,0.68,0.71,1.1,0.8,1.27c0.08,0.13,0.24,0.37,0.49,0.73c0.3,0.42,0.52,0.74,0.65,0.93c0.13,0.19,0.3,0.43,0.54,0.75
			c0.26,0.35,0.47,0.63,0.62,0.85c0.14,0.19,0.3,0.41,0.49,0.65c0.23,0.29,0.41,0.52,0.54,0.7c0.11,0.15,0.24,0.32,0.39,0.5
			c0.17,0.21,0.37,0.46,0.59,0.73c0.22,0.27,0.42,0.54,0.62,0.79c0.18,0.23,0.35,0.45,0.53,0.67c0.19,0.22,0.44,0.51,0.76,0.88
			l0.75,0.85c0.07,0.08,0.35,0.38,1.47,1.5c0.85,0.85,1.41,1.4,1.66,1.65c0.24,0.24,0.67,0.64,1.28,1.2l1.07,0.98
			c0.09,0.08,0.47,0.39,1.12,0.91c0.68,0.55,1.13,0.91,1.33,1.06c0.22,0.17,0.73,0.57,1.52,1.21c0.74,0.61,1.3,1.06,1.69,1.35
			l1.39,1.08c0.52,0.4,0.94,0.72,1.25,0.96c0.31,0.23,0.58,0.43,0.82,0.59c0.22,0.15,0.43,0.29,0.62,0.4
			c0.23,0.14,0.64,0.37,1.23,0.69c0.62,0.34,1.04,0.58,1.25,0.7c0.22,0.13,0.55,0.32,0.98,0.57C43.42,98.97,43.7,99.15,43.85,99.25z
			"/>
	</g>
</g>
</svg>
