<?xml version="1.0" encoding="utf-8"?>
<!-- Generator: Adobe Illustrator 23.0.1, SVG Export Plug-In . SVG Version: 6.00 Build 0)  -->
<svg version="1.1" id="Слой_1" xmlns="http://www.w3.org/2000/svg" xmlns:xlink="http://www.w3.org/1999/xlink" x="0px" y="0px"
	 viewBox="0 0 134.95 102.53" style="enable-background:new 0 0 134.95 102.53;" xml:space="preserve">
<style type="text/css">
	.st0{fill:#FFFFFF;}
</style>
<g>
	<g transform="matrix(.36867 0 0 .36867 7.7552 456.72)">
		<g>
			<path class="st0" d="M118.85-1049.16c-1.29,0-2.57-0.53-3.49-1.57l-12.26-13.83c-0.82-0.93-1.24-2.14-1.16-3.38
				c0.08-1.23,0.64-2.39,1.56-3.21l116.42-103.09c0.85-0.76,1.95-1.17,3.09-1.17h0.01c0.15,0,0.31,0.01,0.46,0.02
				c0.05,0,0.1-0.01,0.15-0.01c1.26-0.08,2.47,0.34,3.4,1.16l116.39,103.09c1.93,1.71,2.11,4.65,0.4,6.58l-12.24,13.83
				c-0.82,0.93-1.97,1.49-3.21,1.56c-1.23,0.09-2.45-0.34-3.37-1.16l-101.52-89.91l-101.54,89.91
				C121.05-1049.55,119.95-1049.16,118.85-1049.16z M113.17-1067.26l6.08,6.86l101.15-89.56c1.77-1.56,4.42-1.56,6.18,0
				l101.12,89.56l6.06-6.85l-110.28-97.68L113.17-1067.26z"/>
		</g>
		<g>
			<path class="st0" d="M300.69-960.73H146.25c-5.25,0-9.51-4.26-9.51-9.5v-103.86c0-1.33,0.57-2.61,1.57-3.49l82.09-72.69
				c1.77-1.56,4.42-1.56,6.18,0l82.04,72.65c1,0.89,1.57,2.16,1.57,3.49v103.89C310.19-964.99,305.93-960.73,300.69-960.73z
				 M146.06-1071.99v101.76c0,0.12,0.1,0.17,0.19,0.17h154.44c0.11,0,0.17-0.06,0.17-0.17v-101.8l-77.38-68.52L146.06-1071.99z"/>
		</g>
		<g>
			<path class="st0" d="M141.39-1094.18c-0.64,0-1.29-0.13-1.89-0.4c-1.68-0.75-2.77-2.42-2.77-4.26v-57.13
				c0-2.57,2.09-4.66,4.66-4.66h29.51c1.24,0,2.44,0.5,3.31,1.38c0.88,0.88,1.36,2.08,1.35,3.32l-0.26,30.7
				c-0.01,1.3-0.57,2.55-1.54,3.42l-29.26,26.43C143.64-1094.59,142.52-1094.18,141.39-1094.18z M146.06-1151.31v41.97l19.95-18.02
				l0.2-23.95H146.06z"/>
		</g>
		<g>
			<path class="st0" d="M251.82-1000.19h-61c-2.57,0-4.66-2.09-4.66-4.66v-61c0-2.57,2.09-4.66,4.66-4.66h61
				c2.57,0,4.66,2.09,4.66,4.66v61C256.48-1002.28,254.39-1000.19,251.82-1000.19z M195.48-1009.52h51.68v-51.68h-51.68V-1009.52z"
				/>
		</g>
	</g>
	<g>
		<g>
			<path class="st0" d="M38.8,77.59C17.4,77.59,0,60.19,0,38.8C0,17.4,17.4,0,38.8,0C49.16,0,58.9,4.04,66.23,11.36
				c0.67,0.67,0.67,1.76,0,2.43s-1.76,0.67-2.43,0c-6.68-6.68-15.56-10.36-25-10.36C19.3,3.44,3.44,19.3,3.44,38.8
				S19.3,74.15,38.8,74.15c0.95,0,1.72,0.77,1.72,1.72S39.75,77.59,38.8,77.59z"/>
		</g>
		<g>
			<path class="st0" d="M23.16,49.78c-0.59,0-1.16-0.3-1.48-0.84c-0.48-0.82-0.21-1.87,0.6-2.36l14.8-8.77V13.55
				c0-0.95,0.77-1.72,1.72-1.72s1.72,0.77,1.72,1.72V38.8c0,0.61-0.32,1.17-0.84,1.48l-15.64,9.27
				C23.75,49.71,23.45,49.78,23.16,49.78z"/>
		</g>
	</g>
</g>
</svg>
