<?xml version="1.0" encoding="utf-8"?>
<!-- Generator: Adobe Illustrator 23.0.1, SVG Export Plug-In . SVG Version: 6.00 Build 0)  -->
<svg version="1.1" id="Слой_1" xmlns="http://www.w3.org/2000/svg" xmlns:xlink="http://www.w3.org/1999/xlink" x="0px" y="0px"
	 viewBox="0 0 86.97 77.9" style="enable-background:new 0 0 86.97 77.9;" xml:space="preserve">
<style type="text/css">
	.st0{fill:#FFFFFF;}
</style>
<g>
	<g>
		<path class="st0" d="M1.75,39.33C0.78,39.33,0,38.54,0,37.58V1.75C0,0.78,0.78,0,1.75,0h23.73c0.71,0,1.35,0.43,1.62,1.08
			c0.27,0.65,0.12,1.41-0.38,1.91l-8.46,8.46l9.37,9.37c0.5,0.5,0.65,1.25,0.38,1.91c-0.27,0.65-0.91,1.08-1.62,1.08H4.26
			c-0.27,0-0.53-0.06-0.76-0.17v13.94C3.5,38.54,2.72,39.33,1.75,39.33z M3.5,3.5v16.98c0.23-0.11,0.49-0.17,0.76-0.17h17.91
			l-7.62-7.62c-0.33-0.33-0.51-0.77-0.51-1.24c0-0.46,0.18-0.91,0.51-1.24l6.71-6.71H3.5z"/>
	</g>
	<g>
		<path class="st0" d="M59.26,77.9H25.14c-3.84,0-11.11-2.42-11.11-11.56c0-9.1,7.22-11.76,11.04-11.9l13.19,0h0
			c0.08,0,3.47-0.02,5.65-2.2c1.3-1.29,1.95-3.15,1.95-5.52c0-2.37-0.66-4.19-1.95-5.42c-2.17-2.06-5.54-1.96-5.57-1.96l-29.75,0
			c-0.97,0-1.75-0.78-1.75-1.75s0.78-1.75,1.75-1.75h29.67c0.11-0.01,4.8-0.2,8.07,2.92c2.01,1.92,3.03,4.59,3.03,7.96
			c0,3.35-1.01,6.05-3.01,8.03c-3.26,3.22-7.92,3.19-8.11,3.19h-13.1c-0.71,0.03-7.61,0.58-7.61,8.41c0,7.77,6.84,8.06,7.61,8.06
			h34.11c0.97,0,1.75,0.78,1.75,1.75C61.01,77.11,60.22,77.9,59.26,77.9z"/>
	</g>
	<g>
		<g>
			<path class="st0" d="M71.81,77.9c-0.41,0-0.83-0.15-1.16-0.44c-1.43-1.27-14-12.63-14-20.59c0-8.36,6.8-15.16,15.16-15.16
				s15.16,6.8,15.16,15.16c0,7.96-12.57,19.32-14,20.59C72.64,77.75,72.22,77.9,71.81,77.9z M71.81,45.2
				c-6.43,0-11.66,5.23-11.66,11.66c0,4.91,7.58,13.06,11.66,16.91c4.08-3.85,11.66-12,11.66-16.91
				C83.47,50.44,78.24,45.2,71.81,45.2z"/>
		</g>
		<g>
			<path class="st0" d="M71.81,65.06c-4.5,0-8.17-3.66-8.17-8.17c0-4.5,3.66-8.17,8.17-8.17s8.17,3.66,8.17,8.17
				C79.98,61.39,76.31,65.06,71.81,65.06z M71.81,52.22c-2.57,0-4.67,2.09-4.67,4.67c0,2.57,2.09,4.67,4.67,4.67
				c2.57,0,4.67-2.09,4.67-4.67C76.48,54.32,74.38,52.22,71.81,52.22z"/>
		</g>
	</g>
</g>
</svg>
