<?xml version="1.0" encoding="utf-8"?>
<!-- Generator: Adobe Illustrator 23.0.1, SVG Export Plug-In . SVG Version: 6.00 Build 0)  -->
<svg version="1.1" id="Слой_1" xmlns="http://www.w3.org/2000/svg" xmlns:xlink="http://www.w3.org/1999/xlink" x="0px" y="0px"
	 viewBox="0 0 91.21 80.56" style="enable-background:new 0 0 91.21 80.56;" xml:space="preserve">
<style type="text/css">
	.st0{fill:#FFFFFF;}
</style>
<g transform="matrix(.36867 0 0 .36867 7.7552 456.72)">
	<g>
		<path class="st0" d="M-3.8-1110.33c-1.31,0-2.62-0.54-3.55-1.6l-12.48-14.08c-0.83-0.94-1.26-2.18-1.18-3.43
			c0.08-1.26,0.65-2.43,1.59-3.27l118.5-104.93c0.87-0.77,1.99-1.19,3.15-1.19h0.01c0.16,0,0.32,0.01,0.47,0.02
			c0.05,0,0.1-0.01,0.15-0.01c1.27-0.1,2.52,0.34,3.47,1.18l118.47,104.93c1.96,1.74,2.14,4.73,0.41,6.7l-12.46,14.08
			c-0.83,0.94-2.01,1.52-3.27,1.59c-1.27,0.09-2.49-0.35-3.44-1.18l-103.33-91.52l-103.36,91.52
			C-1.56-1110.72-2.69-1110.33-3.8-1110.33z M-9.59-1128.75l6.19,6.98l102.95-91.16c1.8-1.59,4.5-1.59,6.29,0l102.92,91.16
			l6.17-6.97l-112.25-99.42L-9.59-1128.75z"/>
	</g>
	<g>
		<path class="st0" d="M181.28-1020.32H24.08c-5.34,0-9.68-4.34-9.68-9.67v-105.72c0-1.36,0.58-2.65,1.6-3.55l83.55-73.98
			c1.8-1.59,4.5-1.59,6.29,0l83.5,73.95c1.02,0.9,1.6,2.19,1.6,3.55v105.75C190.94-1024.66,186.61-1020.32,181.28-1020.32z
			 M23.89-1133.56v103.58c0,0.12,0.1,0.17,0.19,0.17h157.2c0.11,0,0.17-0.06,0.17-0.17v-103.61l-78.76-69.74L23.89-1133.56z"/>
	</g>
	<g>
		<path class="st0" d="M19.14-1156.15c-0.65,0-1.31-0.13-1.93-0.41c-1.71-0.76-2.82-2.46-2.82-4.34v-58.14
			c0-2.62,2.12-4.75,4.74-4.75h30.04c1.27,0,2.48,0.51,3.37,1.4c0.89,0.9,1.39,2.12,1.38,3.38l-0.26,31.24
			c-0.01,1.33-0.58,2.59-1.56,3.48l-29.78,26.9C21.43-1156.57,20.29-1156.15,19.14-1156.15z M23.88-1214.29l0,42.72l20.3-18.34
			l0.2-24.37H23.88z"/>
	</g>
	<g>
		<path class="st0" d="M131.53-1060.48H69.44c-2.62,0-4.75-2.13-4.75-4.75v-62.09c0-2.62,2.13-4.75,4.75-4.75h62.09
			c2.62,0,4.75,2.13,4.75,4.75v62.09C136.28-1062.61,134.16-1060.48,131.53-1060.48z M74.19-1069.97h52.6v-52.6h-52.6V-1069.97z"/>
	</g>
</g>
</svg>
