<?xml version="1.0" encoding="utf-8"?>
<!-- Generator: Adobe Illustrator 23.0.1, SVG Export Plug-In . SVG Version: 6.00 Build 0)  -->
<svg version="1.1" id="Слой_1" xmlns="http://www.w3.org/2000/svg" xmlns:xlink="http://www.w3.org/1999/xlink" x="0px" y="0px"
	 viewBox="0 0 80.01 80.1" style="enable-background:new 0 0 80.01 80.1;" xml:space="preserve">
<style type="text/css">
	.st0{fill:#FFFFFF;}
</style>
<g>
	<g>
		<path class="st0" d="M40.01,33.65c-0.97,0-1.75-0.78-1.75-1.75c0-5.67-4.61-10.28-10.28-10.28S17.7,26.23,17.7,31.9
			c0,0.97-0.78,1.75-1.75,1.75s-1.75-0.78-1.75-1.75c0-7.6,6.18-13.78,13.78-13.78S41.76,24.3,41.76,31.9
			C41.76,32.87,40.97,33.65,40.01,33.65z"/>
	</g>
	<g>
		<path class="st0" d="M64.03,33.65c-0.97,0-1.75-0.78-1.75-1.75c0-5.67-4.61-10.28-10.28-10.28c-5.67,0-10.28,4.61-10.28,10.28
			c0,0.97-0.78,1.75-1.75,1.75s-1.75-0.78-1.75-1.75c0-7.6,6.18-13.78,13.78-13.78c7.6,0,13.78,6.18,13.78,13.78
			C65.78,32.87,65,33.65,64.03,33.65z"/>
	</g>
	<g>
		<path class="st0" d="M39.97,11.01c-0.97,0-1.75-0.78-1.75-1.75c0-2.83-2.3-5.14-5.14-5.14s-5.13,2.3-5.13,5.14
			c0,0.97-0.78,1.75-1.75,1.75c-0.97,0-1.75-0.78-1.75-1.75c0-4.76,3.87-8.63,8.63-8.63c4.76,0,8.63,3.87,8.63,8.63
			C41.72,10.23,40.94,11.01,39.97,11.01z"/>
	</g>
	<g>
		<path class="st0" d="M53.94,10.38c-0.97,0-1.75-0.78-1.75-1.75c0-2.83-2.3-5.14-5.13-5.14c-2.83,0-5.14,2.3-5.14,5.14
			c0,0.97-0.78,1.75-1.75,1.75c-0.97,0-1.75-0.78-1.75-1.75C38.42,3.87,42.3,0,47.06,0c4.76,0,8.63,3.87,8.63,8.63
			C55.69,9.6,54.91,10.38,53.94,10.38z"/>
	</g>
	<g>
		<path class="st0" d="M40.01,50.73c-0.97,0-1.75-0.78-1.75-1.75V6.97c0-0.97,0.78-1.75,1.75-1.75c0.97,0,1.75,0.78,1.75,1.75v42.02
			C41.76,49.95,40.97,50.73,40.01,50.73z"/>
	</g>
	<g>
		<circle class="st0" cx="26.85" cy="14.9" r="2"/>
	</g>
	<g>
		<circle class="st0" cx="26.85" cy="27.98" r="2"/>
	</g>
	<g>
		<circle class="st0" cx="26.85" cy="34.04" r="2"/>
	</g>
	<g>
		<circle class="st0" cx="26.85" cy="40.1" r="2"/>
	</g>
	<g>
		<circle class="st0" cx="52.95" cy="27.98" r="2"/>
	</g>
	<g>
		<circle class="st0" cx="52.95" cy="34.04" r="2"/>
	</g>
	<g>
		<circle class="st0" cx="52.95" cy="40.1" r="2"/>
	</g>
	<g>
		<circle class="st0" cx="52.95" cy="14.9" r="2"/>
	</g>
	<g>
		<circle class="st0" cx="64.98" cy="39.14" r="2"/>
	</g>
	<g>
		<circle class="st0" cx="15.04" cy="39.14" r="2"/>
	</g>
	<g>
		<path class="st0" d="M8.52,45.79c0,0,1.61,17.2,31.49,17.2v-17.2H8.52z"/>
	</g>
	<g>
		<path class="st0" d="M71.5,45.79c0,0-1.61,17.2-31.49,17.2v-17.2H71.5z"/>
	</g>
	<g>
		<path class="st0" d="M0,67.03h80.01c0,0,0.96,13.07-40.01,13.07S0,67.03,0,67.03z"/>
	</g>
	<g>
		<rect x="33.74" y="57.61" class="st0" width="12.47" height="11.42"/>
	</g>
</g>
</svg>
