<?xml version="1.0" encoding="utf-8"?>
<!-- Generator: Adobe Illustrator 23.0.1, SVG Export Plug-In . SVG Version: 6.00 Build 0)  -->
<svg version="1.1" id="Слой_1" xmlns="http://www.w3.org/2000/svg" xmlns:xlink="http://www.w3.org/1999/xlink" x="0px" y="0px"
	 viewBox="0 0 46.82 81" style="enable-background:new 0 0 46.82 81;" xml:space="preserve">
<style type="text/css">
	.st0{fill:#FFFFFF;}
</style>
<g>
	<g>
		<path class="st0" d="M16.25,0c0,0-9.43,23.28,10.08,31.25C26.32,31.25,41.28,18.49,16.25,0z"/>
	</g>
	<g>
		<path class="st0" d="M21.67,59.76c0,0,0.74-20.15,25.16-20.48C46.82,39.28,45.4,66.42,21.67,59.76z"/>
	</g>
	<g>
		<path class="st0" d="M18.68,51.95c0,0,4.44-19.18-18.67-24.22C0.01,27.74-0.99,55.04,18.68,51.95z"/>
	</g>
	<g>
		<path class="st0" d="M26.1,29.58c0,0,1.84,5.17,0,11.36s-8.45,20.82-5.63,28.73S25.12,81,25.12,81h-4.66c0,0-4.9-8.82-3.92-15.97
			c0.98-7.15,3.7-14.98,7.03-21.47C26.68,37.51,26.1,29.58,26.1,29.58z"/>
	</g>
</g>
</svg>
