<?xml version="1.0" encoding="utf-8"?>
<!-- Generator: Adobe Illustrator 23.0.1, SVG Export Plug-In . SVG Version: 6.00 Build 0)  -->
<svg version="1.1" id="Слой_1" xmlns="http://www.w3.org/2000/svg" xmlns:xlink="http://www.w3.org/1999/xlink" x="0px" y="0px"
	 viewBox="0 0 77.08 80.95" style="enable-background:new 0 0 77.08 80.95;" xml:space="preserve">
<style type="text/css">
	.st0{fill:#FFFFFF;}
</style>
<g>
	<g>
		<g>
			<path class="st0" d="M49.53,45.75c0,6.03-4.89,10.91-10.91,10.91S27.7,51.78,27.7,45.75C27.7,18.28,34.89,0,38.61,0
				C42.57,0,49.53,19.72,49.53,45.75z"/>
		</g>
		<g>
			<rect x="37.24" y="56.42" class="st0" width="2.59" height="13.02"/>
		</g>
		<g>
			<ellipse class="st0" cx="38.54" cy="71.92" rx="13.76" ry="3.51"/>
		</g>
	</g>
	<g>
		<g>
			<path class="st0" d="M50.3,49.82c-0.09,0.94,1.83,0.52,2.83,0.52c4.4,0,7.98-3.57,7.98-7.98c0-19.02-5.08-33.43-7.98-33.43
				c-1.43,0-3.5,3.46-5.2,9.91C47.92,18.83,51.83,34.05,50.3,49.82z"/>
		</g>
		<g>
			<rect x="51.83" y="50.15" class="st0" width="2.59" height="13.02"/>
		</g>
		<g>
			<path class="st0" d="M71.34,55.7c0,2.91-2.36,5.26-5.26,5.26c-2.91,0-5.26-2.36-5.26-5.26c0-13.25,3.47-22.06,5.26-22.06
				C67.99,33.63,71.34,43.14,71.34,55.7z"/>
		</g>
		<g>
			<rect x="65.22" y="60.85" class="st0" width="1.71" height="8.59"/>
		</g>
		<g>
			<path class="st0" d="M51.83,63.17v2.37c0,0,16.37,2.52,16.37,8.04c0,5.52-16.37,6.96-16.37,6.96s25.25,3,25.25-6.96
				C77.08,62.54,51.83,63.17,51.83,63.17z"/>
		</g>
	</g>
	<g>
		<g>
			<path class="st0" d="M26.78,49.82c0.09,0.94-1.83,0.52-2.83,0.52c-4.4,0-7.98-3.57-7.98-7.98c0-19.02,5.08-33.43,7.98-33.43
				c1.43,0,3.5,3.46,5.2,9.91C29.16,18.83,25.25,34.05,26.78,49.82z"/>
		</g>
		<g>
			
				<rect x="22.66" y="50.15" transform="matrix(-1 -4.453605e-11 4.453605e-11 -1 47.9069 113.3242)" class="st0" width="2.59" height="13.02"/>
		</g>
		<g>
			<path class="st0" d="M5.74,55.7c0,2.91,2.36,5.26,5.26,5.26s5.26-2.36,5.26-5.26c0-13.25-3.47-22.06-5.26-22.06
				C9.09,33.63,5.74,43.14,5.74,55.7z"/>
		</g>
		<g>
			
				<rect x="10.14" y="60.85" transform="matrix(-1 -4.463020e-11 4.463020e-11 -1 21.9996 130.2812)" class="st0" width="1.71" height="8.59"/>
		</g>
		<g>
			<path class="st0" d="M25.25,63.17v2.37c0,0-16.37,2.52-16.37,8.04c0,5.52,16.37,6.96,16.37,6.96S0,83.53,0,73.57
				C0,62.54,25.25,63.17,25.25,63.17z"/>
		</g>
	</g>
</g>
</svg>
