<?xml version="1.0" encoding="utf-8"?>
<!-- Generator: Adobe Illustrator 23.0.1, SVG Export Plug-In . SVG Version: 6.00 Build 0)  -->
<svg version="1.1" id="Слой_1" xmlns="http://www.w3.org/2000/svg" xmlns:xlink="http://www.w3.org/1999/xlink" x="0px" y="0px"
	 viewBox="0 0 63.47 76.75" style="enable-background:new 0 0 63.47 76.75;" xml:space="preserve">
<style type="text/css">
	.st0{fill:#FFFFFF;}
	.st1{fill:#63A643;}
</style>
<g>
	<g>
		<path class="st0" d="M55.96,76.75H7.51C3.37,76.75,0,73.38,0,69.23V7.51C0,3.37,3.37,0,7.51,0h48.44c4.14,0,7.51,3.37,7.51,7.51
			v61.72C63.47,73.38,60.1,76.75,55.96,76.75z M7.51,3.5C5.3,3.5,3.5,5.3,3.5,7.51v61.72c0,2.21,1.8,4.01,4.01,4.01h48.44
			c2.21,0,4.01-1.8,4.01-4.01V7.51c0-2.21-1.8-4.01-4.01-4.01H7.51z"/>
	</g>
	<g>
		<path class="st0" d="M52.32,16.11H11.16c-0.97,0-1.75-0.78-1.75-1.75s0.78-1.75,1.75-1.75h41.16c0.97,0,1.75,0.78,1.75,1.75
			S53.28,16.11,52.32,16.11z"/>
	</g>
	<g>
		<path class="st0" d="M52.32,25.74H11.16c-0.97,0-1.75-0.78-1.75-1.75c0-0.97,0.78-1.75,1.75-1.75h41.16
			c0.97,0,1.75,0.78,1.75,1.75C54.07,24.96,53.28,25.74,52.32,25.74z"/>
	</g>
	<g>
		<path class="st0" d="M52.32,35.37H11.16c-0.97,0-1.75-0.78-1.75-1.75c0-0.97,0.78-1.75,1.75-1.75h41.16
			c0.97,0,1.75,0.78,1.75,1.75C54.07,34.58,53.28,35.37,52.32,35.37z"/>
	</g>
	<g>
		<path class="st0" d="M31.73,44.99H11.16c-0.97,0-1.75-0.78-1.75-1.75c0-0.97,0.78-1.75,1.75-1.75h20.58
			c0.97,0,1.75,0.78,1.75,1.75C33.48,44.21,32.7,44.99,31.73,44.99z"/>
	</g>
	<g>
		<g>
			<path class="st1" d="M43.4,69.22c-5.64,0-10.22-4.59-10.22-10.22s4.59-10.22,10.22-10.22c1.64,0,3.28,0.4,4.72,1.15
				c0.64,0.33,0.89,1.13,0.56,1.77c-0.34,0.64-1.13,0.89-1.77,0.56c-1.09-0.57-2.27-0.86-3.51-0.86c-4.19,0-7.6,3.41-7.6,7.6
				s3.41,7.6,7.6,7.6s7.6-3.41,7.6-7.6c0-0.72,0.59-1.31,1.31-1.31c0.72,0,1.31,0.59,1.31,1.31C53.63,64.63,49.04,69.22,43.4,69.22z
				"/>
		</g>
		<g>
			<path class="st1" d="M43.23,63.54c-0.36,0-0.7-0.15-0.95-0.41l-3.73-3.9c-0.5-0.52-0.48-1.35,0.04-1.86
				c0.52-0.5,1.35-0.48,1.86,0.04l2.75,2.87l7.03-7.93c0.48-0.54,1.31-0.59,1.85-0.11c0.54,0.48,0.59,1.31,0.11,1.85l-7.98,9
				c-0.24,0.27-0.59,0.43-0.96,0.44C43.24,63.54,43.24,63.54,43.23,63.54z"/>
		</g>
	</g>
</g>
</svg>
